<?xml version="1.0" encoding="UTF-8"?>
<svg version="1.1" xmlns="http://www.w3.org/2000/svg" width="32" height="32">
<path d="M0 0 C0.3403125 0.9590625 0.3403125 0.9590625 0.6875 1.9375 C1.120625 2.618125 1.55375 3.29875 2 4 C3.66321482 4.35015049 5.33034549 4.68197057 7 5 C9.3125 6.5 9.3125 6.5 11 9 C11.55115858 13.23320409 11.34956713 16.95129862 10 21 C8.0390625 22.75390625 8.0390625 22.75390625 5.625 24.5625 C4.43777344 25.46162109 4.43777344 25.46162109 3.2265625 26.37890625 C-1.74698795 30 -1.74698795 30 -6 30 C-6.33 28.35 -6.66 26.7 -7 25 C-10.3 25 -13.6 25 -17 25 C-16.505 23.515 -16.505 23.515 -16 22 C-15.175 21.71125 -14.35 21.4225 -13.5 21.125 C-12.2625 20.568125 -12.2625 20.568125 -11 20 C-10.10613836 17.45224694 -10.10613836 17.45224694 -10 15 C-11.98 15.33 -13.96 15.66 -16 16 C-16.1875 13.6875 -16.1875 13.6875 -16 11 C-15.02246356 9.97803008 -14.0194119 8.98020375 -13 8 C-12.5359375 6.4840625 -12.5359375 6.4840625 -12.0625 4.9375 C-11 2 -11 2 -9.3125 0.625 C-6.16859163 -0.22470496 -3.23851421 -0.12455824 0 0 Z " fill="#181818" transform="translate(19,2)"/>
<path d="M0 0 C0.66 0 1.32 0 2 0 C4 3 4 3 3.625 6.1875 C3.315625 7.5796875 3.315625 7.5796875 3 9 C2.01 9.33 1.02 9.66 0 10 C0 10.99 0 11.98 0 13 C-1.4375 14.625 -1.4375 14.625 -3 16 C-4.52100023 17.52100023 -5.72023232 19.27509574 -7 21 C-7.99 20.67 -8.98 20.34 -10 20 C-10 17 -10 17 -9 16 C-11.475 15.01 -11.475 15.01 -14 14 C-13.34 13.67 -12.68 13.34 -12 13 C-12.33 11.35 -12.66 9.7 -13 8 C-13.66 8 -14.32 8 -15 8 C-14.67 6.02 -14.34 4.04 -14 2 C-10.7 2 -7.4 2 -4 2 C-4 2.99 -4 3.98 -4 5 C-2.68 4.67 -1.36 4.34 0 4 C0 2.68 0 1.36 0 0 Z " fill="#A3A3A3" transform="translate(26,8)"/>
<path d="M0 0 C0.66 0 1.32 0 2 0 C2 0.99 2 1.98 2 3 C2.66 3 3.32 3 4 3 C4.33 2.34 4.66 1.68 5 1 C5 3.66666667 5 6.33333333 5 9 C7.97 9.495 7.97 9.495 11 10 C10.67 10.66 10.34 11.32 10 12 C9.01 12 8.02 12 7 12 C7.33 12.99 7.66 13.98 8 15 C10.0162233 14.28436734 10.0162233 14.28436734 12 13 C12.80528889 10.94999129 12.80528889 10.94999129 13 9 C13.66 9.33 14.32 9.66 15 10 C17.2773501 7.18490007 17.2773501 7.18490007 17 4 C17.66 3.67 18.32 3.34 19 3 C19.66 3.33 20.32 3.66 21 4 C21.0625 6.5625 21.0625 6.5625 20 10 C15.54144369 14.28127772 10.25807763 19 4 19 C3.67 17.35 3.34 15.7 3 14 C-0.3 14 -3.6 14 -7 14 C-6.67 13.01 -6.34 12.02 -6 11 C-5.175 10.71125 -4.35 10.4225 -3.5 10.125 C-2.2625 9.568125 -2.2625 9.568125 -1 9 C-0.10613836 6.45224694 -0.10613836 6.45224694 0 4 C-0.66 3.67 -1.32 3.34 -2 3 C-1.34 2.01 -0.68 1.02 0 0 Z " fill="#444444" transform="translate(9,13)"/>
<path d="M0 0 C0.99 0.33 1.98 0.66 3 1 C3.0625 3.5625 3.0625 3.5625 2 7 C-1.63746722 10.49283632 -5.81561683 13.21041122 -10 16 C-12.1875 15.625 -12.1875 15.625 -14 15 C-13.67 12.69 -13.34 10.38 -13 8 C-11.02 7.67 -9.04 7.34 -7 7 C-7.33 7.66 -7.66 8.32 -8 9 C-8.99 9 -9.98 9 -11 9 C-10.67 9.99 -10.34 10.98 -10 12 C-7.9837767 11.28436734 -7.9837767 11.28436734 -6 10 C-5.19471111 7.94999129 -5.19471111 7.94999129 -5 6 C-4.34 6.33 -3.68 6.66 -3 7 C-0.7226499 4.18490007 -0.7226499 4.18490007 -1 1 C-0.67 0.67 -0.34 0.34 0 0 Z " fill="#717171" transform="translate(27,16)"/>
<path d="M0 0 C0.268125 0.639375 0.53625 1.27875 0.8125 1.9375 C1.88667752 4.33131686 1.88667752 4.33131686 5 5 C3.824375 4.95875 2.64875 4.9175 1.4375 4.875 C-3.28113277 4.90834723 -7.9483927 5.05200923 -11.546875 8.46875 C-12.76798419 9.92310476 -13.89304959 11.45697822 -15 13 C-15 10 -15 10 -13 8 C-12.71125 7.01 -12.4225 6.02 -12.125 5 C-11 2 -11 2 -9.3125 0.625 C-6.16859163 -0.22470496 -3.23851421 -0.12455824 0 0 Z " fill="#B0B0B0" transform="translate(19,2)"/>
<path d="M0 0 C0.99 0.33 1.98 0.66 3 1 C3 1.66 3 2.32 3 3 C3.66 3.33 4.32 3.66 5 4 C3.33333333 5.66666667 1.66666667 7.33333333 0 9 C-1.00642948 10.32848691 -2.00692179 11.66150329 -3 13 C-3.99 12.67 -4.98 12.34 -6 12 C-6 9 -6 9 -5 8 C-5 7.34 -5 6.68 -5 6 C-3.68 5.67 -2.36 5.34 -1 5 C-0.67 3.35 -0.34 1.7 0 0 Z " fill="#C3C3C3" transform="translate(22,16)"/>
<path d="M0 0 C-0.75 6.625 -0.75 6.625 -3 10 C-3.33 8.02 -3.66 6.04 -4 4 C-5.65 3.67 -7.3 3.34 -9 3 C-9 2.34 -9 1.68 -9 1 C-5.92677456 0.08941469 -3.19902639 -0.08886184 0 0 Z " fill="#CDCDCD" transform="translate(22,10)"/>
<path d="M0 0 C0.66 0 1.32 0 2 0 C2 0.99 2 1.98 2 3 C2.66 3 3.32 3 4 3 C4.33 2.34 4.66 1.68 5 1 C5 3.31 5 5.62 5 8 C3.35 8.33 1.7 8.66 0 9 C0 7.35 0 5.7 0 4 C-0.66 3.67 -1.32 3.34 -2 3 C-1.34 2.01 -0.68 1.02 0 0 Z " fill="#6B6B6B" transform="translate(9,13)"/>
<path d="M0 0 C0.66 0 1.32 0 2 0 C4 3 4 3 3.625 6.1875 C3.41875 7.115625 3.2125 8.04375 3 9 C1.68 9.33 0.36 9.66 -1 10 C-1.66 8.35 -2.32 6.7 -3 5 C-2.01 4.67 -1.02 4.34 0 4 C0 2.68 0 1.36 0 0 Z " fill="#B5B5B5" transform="translate(26,8)"/>
<path d="M0 0 C-1.32 0.33 -2.64 0.66 -4 1 C-3.67 3.31 -3.34 5.62 -3 8 C-4.32 7.67 -5.64 7.34 -7 7 C-6.67 4.69 -6.34 2.38 -6 0 C-2.25 -1.125 -2.25 -1.125 0 0 Z " fill="#9A9A9A" transform="translate(20,24)"/>
<path d="M0 0 C2.31 0 4.62 0 7 0 C7.268125 0.639375 7.53625 1.27875 7.8125 1.9375 C8.88667752 4.33131686 8.88667752 4.33131686 12 5 C7.61110675 4.33501617 4.0188515 2.81242323 0 1 C0 0.67 0 0.34 0 0 Z " fill="#C0C0C0" transform="translate(12,2)"/>
<path d="M0 0 C1.32 0 2.64 0 4 0 C4 2 4 2 1.6875 4.5 C-1 7 -1 7 -4 9 C-3.71125 8.443125 -3.4225 7.88625 -3.125 7.3125 C-1.9586747 4.91505355 -0.9660119 2.48403061 0 0 Z " fill="#8F8F8F" transform="translate(7,6)"/>
<path d="M0 0 C0.33 0 0.66 0 1 0 C1.33 2.31 1.66 4.62 2 7 C0.02 7.99 0.02 7.99 -2 9 C-2.33 8.34 -2.66 7.68 -3 7 C-2.34 7 -1.68 7 -1 7 C-0.67 4.69 -0.34 2.38 0 0 Z " fill="#D3D3D3" transform="translate(15,14)"/>
</svg>
